<?xml version="1.0" encoding="UTF-8"?>
<svg id="Layer_2" xmlns="http://www.w3.org/2000/svg" viewBox="0 0 39.35 37.79">
  <defs>
    <style>
      .cls-1 {
        fill: #99562d;
      }

      .cls-2 {
        fill: #fff;
      }
    </style>
  </defs>
  <g id="_ÉåÉCÉÑÅ_x5B__x5F_4" data-name="ÉåÉCÉÑÅ_x5B__x5F_4">
    <g>
      <path class="cls-1" d="M36.04,5.77c-1.83,0-3.31,1.49-3.31,3.31,0,.29.05.56.12.83l-6.12,1.77-4.96-5.8c.75-.61,1.23-1.52,1.23-2.56,0-1.83-1.49-3.31-3.31-3.31s-3.31,1.49-3.31,3.31c0,1.03.49,1.95,1.23,2.56l-4.96,5.8-6.12-1.77c.07-.27.12-.54.12-.83,0-1.83-1.49-3.31-3.31-3.31s-3.31,1.49-3.31,3.31,1.49,3.31,3.31,3.31c.32,0,.63-.06.93-.15l2.97,20.22c.1.71.76,1.19,1.47,1.09.05,0,5.46-.79,11-.79s10.94.78,11,.79c.06,0,.13.01.19.01.63,0,1.18-.46,1.28-1.11l2.97-20.22c.3.09.6.15.92.15,1.83,0,3.31-1.49,3.31-3.31s-1.49-3.31-3.31-3.31Z"/>
      <path class="cls-1" d="M30.36,35.22c-.21-.03-5.3-.81-10.69-.81s-10.47.78-10.69.81c-.71.11-1.19.77-1.08,1.48.11.71.78,1.19,1.48,1.08.05,0,5.11-.78,10.29-.78s10.24.78,10.29.78c.07.01.13.02.2.02.63,0,1.18-.46,1.28-1.09.11-.71-.37-1.37-1.08-1.48Z"/>
      <path class="cls-2" d="M19.64,28.99c-4.4,0-4.89-3.55-4.89-3.75,0-.74.7-1.23,1.34-1.23.48,0,.92.26,1.09.85.29,1.05,1.18,1.67,2.46,1.67,1.56,0,2.59-.77,2.59-2.19s-1.25-2.02-2.61-2.1c-.07-.02-.57-.02-.64-.02-.72,0-1.08-.63-1.08-1.25s.37-1.23,1.08-1.23c2.48,0,2.89-1.14,2.89-1.75,0-.99-.81-1.77-2.23-1.77-1.18,0-1.89.57-2.1,1.43-.11.52-.59.75-1.1.75-.64,0-1.34-.4-1.34-1.12,0-.61.7-3.49,4.52-3.49,2.85,0,4.78,1.56,4.78,4.16,0,1.32-.62,2.48-1.77,2.94,1.42.59,2.19,1.97,2.19,3.46,0,2.81-1.95,4.63-5.19,4.63Z"/>
    </g>
  </g>
</svg>