<?xml version="1.0" encoding="utf-8"?>
<!-- Generator: Adobe Illustrator 27.0.1, SVG Export Plug-In . SVG Version: 6.00 Build 0)  -->
<svg version="1.1" id="Layer_1" xmlns="http://www.w3.org/2000/svg" xmlns:xlink="http://www.w3.org/1999/xlink" x="0px" y="0px"
	 viewBox="0 0 500 500" style="enable-background:new 0 0 500 500;" xml:space="preserve">
<style type="text/css">
	.st0{fill-rule:evenodd;clip-rule:evenodd;fill:#FFE177;}
	.st1{fill-rule:evenodd;clip-rule:evenodd;fill:#88C8FE;}
	.st2{fill-rule:evenodd;clip-rule:evenodd;fill:#FA6E85;}
	.st3{fill-rule:evenodd;clip-rule:evenodd;fill:#E6E6E6;}
	.st4{fill-rule:evenodd;clip-rule:evenodd;fill:#ADA0AD;}
	.st5{fill-rule:evenodd;clip-rule:evenodd;fill:#48A0E8;}
	.st6{fill-rule:evenodd;clip-rule:evenodd;fill:#FCD4A9;}
	.st7{fill-rule:evenodd;clip-rule:evenodd;fill:#1E2F3F;}
	.st8{fill-rule:evenodd;clip-rule:evenodd;fill:#19CFBA;}
	.st9{fill-rule:evenodd;clip-rule:evenodd;fill:#FFBF31;}
	.st10{fill-rule:evenodd;clip-rule:evenodd;fill:#00BFA9;}
	.st11{fill-rule:evenodd;clip-rule:evenodd;fill:#F0B16E;}
	.st12{fill-rule:evenodd;clip-rule:evenodd;fill:#C89D8D;}
	.st13{fill-rule:evenodd;clip-rule:evenodd;fill:#E8BC8E;}
	.st14{fill-rule:evenodd;clip-rule:evenodd;fill:#60B7FE;}
	.st15{fill-rule:evenodd;clip-rule:evenodd;fill:#847784;}
	.st16{fill-rule:evenodd;clip-rule:evenodd;fill:#4187B5;}
	.st17{fill-rule:evenodd;clip-rule:evenodd;fill:#B3B3B3;}
	.st18{fill-rule:evenodd;clip-rule:evenodd;fill:#CCCCCC;}
	.st19{fill-rule:evenodd;clip-rule:evenodd;fill:#FFFFFF;}
	.st20{fill-rule:evenodd;clip-rule:evenodd;fill:#EFC89F;}
	.st21{fill-rule:evenodd;clip-rule:evenodd;fill:#A37767;}
	.st22{fill-rule:evenodd;clip-rule:evenodd;fill:#9BC9FF;}
	.st23{fill-rule:evenodd;clip-rule:evenodd;fill:#D6B4A8;}
	.st24{fill-rule:evenodd;clip-rule:evenodd;fill:#14B5A2;}
	.st25{fill-rule:evenodd;clip-rule:evenodd;fill:#E33F65;}
	.st26{fill-rule:evenodd;clip-rule:evenodd;fill:#CF8C48;}
	.st27{fill-rule:evenodd;clip-rule:evenodd;fill:#E3A829;}
	.st28{fill-rule:evenodd;clip-rule:evenodd;fill:#D1991F;}
</style>
<g>
	<path class="st13" d="M288.802,278.241h27.354c10.843,0,19.715,8.871,19.715,19.714c0,9.711-7.181,18.047-16.78,19.495
		c-0.957,0.145-9.181,0.219-10.178,0.219c19.519,2.776,29.209,0.528,31.348,19.379c0.74,6.525-7.575,19.044-15.712,19.933
		c-0.704,0.077-6.823-0.195-14.601,0.117c10.461,1.325,13.514,1.202,17.593,2.602c19.287,6.619,11.632,34.954-6.623,36.497
		c-1.179,0.1-8.439,0.197-21.317,0.33c20.551,1.948,31.142,6.982,31.322,19.714c0.153,10.841-8.873,19.715-19.715,19.715h-78.784
		c-15.323,0-22.456-11.132-37.208-15.27l-30.324-8.506l-14.444,5.399l-3.959-104.971c78.873-19.563,101.782-10.244,101.782-110.075
		c0-4.92,4.012-8.932,8.932-8.932h12.209c13.754,0,24.971,11.217,24.971,24.971C294.382,251.106,296.123,247.263,288.802,278.241z"
		/>
	<path class="st14" d="M174.727,424.793H131.99c-4.798,0-8.723-3.925-8.723-8.723V302.552c0-4.798,3.926-8.723,8.723-8.723h42.737
		V424.793z"/>
	<path class="st9" d="M258.807,63.659l11.313,35.047l36.858-0.071c3.202-0.003,4.527,4.12,1.944,5.995l0.005,0.007l-29.856,21.604
		l11.456,35.028c0.98,3.006-2.513,5.756-5.307,3.556l-29.576-21.576l-29.778,21.723c-2.588,1.886-6.08-0.667-5.097-3.7l-0.008-0.003
		l11.456-35.028l-29.856-21.604c-2.568-1.859-1.348-6.132,2.191-6.002l36.616,0.07l11.32-35.068
		C253.477,60.557,257.844,60.598,258.807,63.659L258.807,63.659z M345.58,135.102l-32.043-0.061
		c-3.202-0.003-4.527,4.12-1.944,5.995l-0.005,0.007l25.955,18.781l-9.959,30.452c-0.98,3.006,2.513,5.756,5.307,3.556
		l25.686-18.738l25.888,18.885c2.588,1.886,6.08-0.667,5.097-3.7l0.008-0.003l-9.959-30.452l25.955-18.781
		c2.568-1.86,1.348-6.132-2.191-6.002l-31.801,0.061l-9.841-30.486c-0.986-3.063-5.339-3.059-6.32,0.021L345.58,135.102
		L345.58,135.102z M155.872,104.638c-0.962-3.061-5.329-3.102-6.32-0.021l-9.841,30.486l-31.801-0.061
		c-3.539-0.131-4.759,4.142-2.191,6.002l25.954,18.781l-9.959,30.452l0.008,0.003c-0.983,3.033,2.509,5.586,5.097,3.7l25.888-18.885
		l25.686,18.738c2.794,2.2,6.287-0.549,5.307-3.555l-9.959-30.452l25.955-18.781l-0.005-0.007c2.584-1.875,1.258-5.998-1.944-5.995
		l-32.043,0.062L155.872,104.638L155.872,104.638z M93.375,187.175l8.597,26.633l28.017-0.054c3.202-0.003,4.527,4.12,1.944,5.995
		l0.005,0.007l-22.693,16.421l8.708,26.625c0.98,3.006-2.513,5.756-5.307,3.555l-22.434-16.365l-22.635,16.512
		c-2.588,1.886-6.08-0.667-5.097-3.7l-0.008-0.003l8.707-26.625l-22.693-16.421c-2.568-1.859-1.348-6.132,2.191-6.002l27.775,0.053
		l8.604-26.654C88.046,184.073,92.413,184.114,93.375,187.175L93.375,187.175z M412.92,187.175l8.597,26.633l28.017-0.054
		c3.202-0.003,4.527,4.12,1.944,5.995l0.005,0.007l-22.693,16.421l8.708,26.625c0.98,3.006-2.513,5.756-5.307,3.555l-22.434-16.365
		l-22.635,16.512c-2.588,1.886-6.08-0.667-5.097-3.7l-0.008-0.003l8.707-26.625l-22.693-16.421
		c-2.568-1.859-1.348-6.132,2.191-6.002l27.775,0.053l8.604-26.654C407.591,184.073,411.958,184.114,412.92,187.175z"/>
	<path class="st7" d="M362.262,165.958c-2.197-1.595-5.154-1.595-7.351,0l-12.228,8.923l4.707-14.386
		c0.836-2.579-0.075-5.403-2.273-6.995l-12.263-8.873l15.147,0.03c2.704,0,5.108-1.743,5.939-4.322l4.647-14.401l4.652,14.401
		c0.834,2.584,3.234,4.324,5.944,4.322l15.143-0.03l-12.268,8.873c-2.193,1.592-3.11,4.417-2.269,6.995l4.707,14.386
		L362.262,165.958L362.262,165.958z M386.423,197.54c4.162,0,7.253-4.126,5.929-8.172l-9.294-28.427l24.226-17.536
		c4.878-3.529,2.35-11.293-3.666-11.287l-29.904,0.06l-9.189-28.462c-1.848-5.728-10.018-5.748-11.873,0l-9.189,28.462l-29.914-0.06
		c-6.01,0-8.53,7.764-3.66,11.287l24.231,17.536l-9.299,28.427c-1.859,5.696,4.755,10.509,9.604,6.975l24.161-17.626l24.161,17.626
		C383.84,197.139,385.136,197.54,386.423,197.54L386.423,197.54z M142.12,144.656c2.717,0,5.114-1.734,5.949-4.322l4.652-14.401
		l4.647,14.401c0.832,2.581,3.228,4.324,5.944,4.322l15.143-0.03l-12.263,8.873c-2.193,1.592-3.11,4.417-2.273,6.991l4.707,14.391
		l-12.228-8.923c-2.188-1.597-5.163-1.597-7.351,0l-12.233,8.923l4.707-14.391c0.841-2.574-0.075-5.398-2.268-6.991l-12.268-8.873
		L142.12,144.656L142.12,144.656z M104.023,143.405l24.226,17.536l-9.294,28.427c-1.88,5.744,4.735,10.511,9.604,6.975
		l24.161-17.626l24.161,17.626c4.845,3.53,11.464-1.276,9.604-6.975l-9.299-28.427l24.231-17.536
		c4.877-3.534,2.343-11.293-3.676-11.287l-29.899,0.06l-9.189-28.462c-1.851-5.738-10.024-5.733-11.873,0l-9.184,28.462
		l-29.919-0.06C101.667,132.118,99.153,139.872,104.023,143.405L104.023,143.405z M418.962,236.844l3.455,10.561l-8.978-6.55
		c-2.183-1.597-5.153-1.597-7.351,0l-8.968,6.55l3.45-10.561c0.841-2.574-0.075-5.403-2.268-6.991l-9.008-6.515l11.126,0.025
		c2.699,0,5.103-1.748,5.939-4.322l3.405-10.576l3.42,10.576c0.831,2.579,3.2,4.347,5.944,4.322l11.102-0.025l-8.988,6.515
		C419.037,231.44,418.121,234.27,418.962,236.844L418.962,236.844z M455.466,215.141c0.851,2.574-0.05,5.393-2.253,6.98
		l-20.981,15.168l8.062,24.601c1.829,5.718-4.758,10.506-9.614,6.976l-20.916-15.253l-20.901,15.253
		c-4.83,3.527-11.494-1.2-9.604-6.976l8.042-24.601l-20.961-15.168c-4.878-3.526-2.365-11.292,3.65-11.292l25.889,0.05l7.952-24.627
		c1.851-5.738,10.023-5.733,11.873,0l7.947,24.627l25.908-0.05C452.261,210.83,454.615,212.572,455.466,215.141L455.466,215.141z
		 M99.422,236.844l3.45,10.561l-8.978-6.55c-2.183-1.596-5.161-1.594-7.351,0l-8.968,6.55l3.45-10.561
		c0.841-2.574-0.075-5.403-2.273-6.991l-9.003-6.515l11.117,0.025c2.734-0.01,5.113-1.743,5.944-4.322l3.41-10.576l3.42,10.576
		c0.833,2.578,3.229,4.325,5.944,4.322l11.106-0.025l-8.993,6.515C99.497,231.44,98.575,234.27,99.422,236.844L99.422,236.844z
		 M120.733,261.891c1.885,5.757-4.764,10.509-9.604,6.976l-20.911-15.253l-20.901,15.253c-4.848,3.538-11.462-1.279-9.604-6.976
		l8.042-24.601l-20.961-15.168c-4.88-3.528-2.36-11.292,3.651-11.292l25.889,0.05l7.957-24.627c1.852-5.74,10.019-5.733,11.868,0
		l7.947,24.627l25.883-0.05c6.019-0.006,8.547,7.764,3.671,11.292l-20.971,15.168L120.733,261.891L120.733,261.891z
		 M243.571,108.257c2.716,0,5.119-1.732,5.954-4.316l6.129-18.988l6.129,18.983c0.833,2.584,3.229,4.324,5.944,4.322l19.955-0.035
		l-16.164,11.697c-2.193,1.587-3.115,4.411-2.268,6.99l6.204,18.963l-16.124-11.758c-2.187-1.596-5.164-1.596-7.351,0
		l-16.119,11.758l6.199-18.963c0.841-2.579-0.075-5.403-2.268-6.99l-16.164-11.697L243.571,108.257L243.571,108.257z M200.662,107
		c-4.883-3.526-2.354-11.287,3.66-11.287l34.727,0.065l10.666-33.044c1.86-5.743,10.028-5.731,11.878,0l10.656,33.044l34.721-0.065
		c6.021-0.006,8.552,7.754,3.676,11.287l-28.137,20.355l10.801,33.004c1.884,5.753-4.765,10.509-9.599,6.976l-28.057-20.465
		l-28.052,20.465c-4.842,3.528-11.472-1.269-9.604-6.976l10.791-33.004L200.662,107L200.662,107z M336.454,338.921
		c-0.2,4.121-3.25,10.621-7.401,11.222c-2.003,0.055-15.748,0.095-17.536,0.095c-3.45,0-6.234,2.794-6.234,6.239
		c0,3.44,2.784,6.234,6.234,6.234c6.239,0,12.128,0.095,15.493,1.252c13.158,4.521,9.649,24.624-1.562,25.393
		c-1.297,0.06-11.192,0.185-17.987,0.255c-2.138-0.09-4.366-0.07-6.665,0.07c-3.36,0.2-5.964,3.04-5.864,6.41
		c0.105,3.37,2.869,6.049,6.234,6.049c0.07,0,2.564-0.02,5.964-0.055c6.8,0.32,12.198,2.103,15.498,5.173
		c7.959,7.394,2.114,21.842-9.855,21.842h-78.782c-12.999,0-19.869-10.651-35.528-15.042l-17.491-4.907v-98.341
		c27.216-6.059,45.508-10.691,57.726-24.982c12.509-14.627,17.381-38.152,17.381-83.915c0-1.487,1.207-2.699,2.694-2.699h12.203
		c10.335,0,18.733,8.407,18.733,18.733c0,6.169,0.07,11.107,0.115,15.073c0.215,16.995,0.24,18.768-5.518,43.164
		c-0.923,3.895,2.057,7.671,6.059,7.671h27.356c7.431,0,13.48,6.049,13.48,13.48c0,6.565-4.867,12.263-11.342,13.305
		c-1.342,0.095-8.007,0.17-9.379,0.17c-3.44,0-6.235,2.794-6.235,6.239s2.794,6.234,6.235,6.234c12.604,0,20.02,1.622,23.34,5.113
		C334.566,329.176,336.83,331.555,336.454,338.921L336.454,338.921z M168.499,417.467H132c-1.347,0-2.484-1.142-2.484-2.489V301.46
		c0-1.347,1.137-2.484,2.484-2.484h36.499V417.467L168.499,417.467z M336.519,315.15c9.143,4.599,12.967,12.993,12.398,24.391
		c-0.29,5.814-3.07,13.465-8.448,18.337c12.436,12.19,8.787,35.68-7.366,42.313c3.611,4.226,5.538,9.479,5.623,15.338
		c0.205,14.414-11.742,26.039-25.954,26.039h-78.782c-17.516,0-25.252-11.675-38.893-15.498l-14.126-3.966v1.597
		c0,3.445-2.794,6.239-6.239,6.239H132c-8.247,0-14.957-6.715-14.957-14.962V301.46c0-8.247,6.71-14.957,14.957-14.957h42.734
		c3.445,0,6.239,2.789,6.239,6.234v5.293c23.27-5.228,38.993-9.494,48.247-20.31c10.21-11.948,14.386-33.91,14.386-75.808
		c0-8.367,6.8-15.168,15.168-15.168h12.203c17.211,0,31.206,13.996,31.206,31.201c0,6.089,0.065,10.981,0.115,14.912
		c0.2,15.688,0.25,19.539-4.076,38.527h19.499c14.311,0,25.954,11.637,25.954,25.949
		C343.675,304.134,340.961,310.448,336.519,315.15z"/>
</g>
</svg>
