<?xml version="1.0" encoding="UTF-8"?>
<svg id="Layer_2" xmlns="http://www.w3.org/2000/svg" viewBox="0 0 39.35 37.79">
  <defs>
    <style>
      .cls-1 {
        fill: #d09b2c;
      }

      .cls-2 {
        fill: #fff;
      }
    </style>
  </defs>
  <g id="_ÉåÉCÉÑÅ_x5B__x5F_4" data-name="ÉåÉCÉÑÅ_x5B__x5F_4">
    <g>
      <path class="cls-1" d="M36.04,5.77c-1.83,0-3.31,1.49-3.31,3.31,0,.29.05.56.12.83l-6.12,1.77-4.96-5.8c.75-.61,1.23-1.52,1.23-2.56,0-1.83-1.49-3.31-3.31-3.31s-3.31,1.49-3.31,3.31c0,1.03.49,1.95,1.23,2.56l-4.96,5.8-6.12-1.77c.07-.27.12-.54.12-.83,0-1.83-1.49-3.31-3.31-3.31s-3.31,1.49-3.31,3.31,1.49,3.31,3.31,3.31c.32,0,.63-.06.93-.15l2.97,20.22c.09.64.65,1.11,1.28,1.11.06,0,.13,0,.19-.01.05,0,5.46-.79,11-.79s10.94.78,11,.79c.71.11,1.36-.39,1.47-1.09l2.97-20.22c.3.09.6.15.93.15,1.83,0,3.31-1.49,3.31-3.31s-1.49-3.31-3.31-3.31Z"/>
      <path class="cls-1" d="M30.36,35.22c-.21-.03-5.3-.81-10.69-.81s-10.47.78-10.69.81c-.71.11-1.19.77-1.08,1.48.1.64.65,1.09,1.28,1.09.07,0,.13,0,.2-.02.05,0,5.1-.78,10.29-.78s10.24.78,10.29.78c.71.1,1.37-.37,1.48-1.08.11-.71-.37-1.37-1.08-1.48Z"/>
      <path class="cls-2" d="M20.32,28.82c-.64,0-1.29-.35-1.29-1.03v-10.24c-.57.44-1.42.77-1.69.77-.72,0-1.23-.74-1.23-1.42,0-.4.18-.79.62-.99.64-.29,1.77-.99,2.35-1.53.28-.26.64-.37,1.01-.37.74,0,1.49.5,1.49,1.42v12.36c0,.68-.64,1.03-1.27,1.03Z"/>
    </g>
  </g>
</svg>