<?xml version="1.0" encoding="UTF-8"?>
<svg id="Layer_2" xmlns="http://www.w3.org/2000/svg" viewBox="0 0 39.35 37.79">
  <defs>
    <style>
      .cls-1 {
        fill: #fff;
      }

      .cls-2 {
        fill: #808285;
      }
    </style>
  </defs>
  <g id="_ÉåÉCÉÑÅ_x5B__x5F_4" data-name="ÉåÉCÉÑÅ_x5B__x5F_4">
    <g>
      <path class="cls-2" d="M36.04,5.77c-1.83,0-3.31,1.49-3.31,3.31,0,.29.05.56.12.83l-6.12,1.77-4.96-5.8c.75-.61,1.23-1.52,1.23-2.56,0-1.83-1.49-3.31-3.31-3.31s-3.31,1.49-3.31,3.31c0,1.03.49,1.95,1.23,2.56l-4.96,5.8-6.12-1.77c.07-.27.12-.54.12-.83,0-1.83-1.49-3.31-3.31-3.31s-3.31,1.49-3.31,3.31,1.49,3.31,3.31,3.31c.32,0,.63-.06.93-.15l2.97,20.22c.1.71.76,1.19,1.47,1.09.05,0,5.46-.79,11-.79s10.94.78,11,.79c.06,0,.13.01.19.01.63,0,1.18-.46,1.28-1.11l2.97-20.22c.3.09.6.15.93.15,1.83,0,3.31-1.49,3.31-3.31s-1.49-3.31-3.31-3.31Z"/>
      <path class="cls-2" d="M30.36,35.22c-.21-.03-5.3-.81-10.69-.81s-10.47.78-10.69.81c-.71.11-1.19.77-1.08,1.48.1.64.65,1.09,1.28,1.09.07,0,.13,0,.2-.02.05,0,5.11-.78,10.29-.78s10.24.78,10.29.78c.7.11,1.37-.37,1.48-1.08.11-.71-.37-1.37-1.08-1.48Z"/>
      <path class="cls-1" d="M20.93,23.01c-1.62.92-3.22,1.91-3.51,3.09h6.31c.68,0,1.01.63,1.01,1.23s-.33,1.23-1.01,1.23h-7.36c-1.18,0-1.78-.72-1.78-1.75,0-.57.18-1.23.55-1.93.97-1.8,3.03-2.94,4.58-3.83,1.6-.94,2.19-1.88,2.19-2.85,0-1.07-.74-2-2.17-2-1.34,0-2.21.74-2.35,2.08-.07.63-.61.94-1.14.94-.64,0-1.29-.4-1.29-1.12,0-1.51,1.27-4.3,4.89-4.3,3.09,0,4.62,2.06,4.62,4.47s-1.77,3.75-3.53,4.75Z"/>
    </g>
  </g>
</svg>